<mxfile host="app.diagrams.net" modified="2023-06-16T17:03:39.798Z" agent="Mozilla/5.0 (X11; Linux x86_64; rv:109.0) Gecko/20100101 Firefox/114.0" etag="Z8ot-RMSp6iXE-a9W60e" version="21.4.0" type="device">
  <diagram name="Page-1" id="DrXh_SdSaHh5ttSkYDCU">
    <mxGraphModel dx="8762" dy="6424" grid="1" gridSize="10" guides="1" tooltips="1" connect="1" arrows="1" fold="1" page="1" pageScale="1" pageWidth="850" pageHeight="1100" math="0" shadow="0">
      <root>
        <mxCell id="0" />
        <mxCell id="1" parent="0" />
        <mxCell id="I0jVJIgrmsE1n152C2gL-33" value="" style="rounded=1;whiteSpace=wrap;html=1;arcSize=2;strokeColor=none;fillColor=#E9EAEC;" vertex="1" parent="1">
          <mxGeometry x="-520.0000000000002" y="-1860" width="1970" height="2450" as="geometry" />
        </mxCell>
        <mxCell id="I0jVJIgrmsE1n152C2gL-31" value="" style="group" vertex="1" connectable="0" parent="1">
          <mxGeometry x="-389.74" y="-1620" width="1709.4799999999996" height="1970.0000000000002" as="geometry" />
        </mxCell>
        <mxCell id="I0jVJIgrmsE1n152C2gL-6" value="" style="group" vertex="1" connectable="0" parent="I0jVJIgrmsE1n152C2gL-31">
          <mxGeometry width="1709.4799999999998" height="1970.0000000000002" as="geometry" />
        </mxCell>
        <mxCell id="I0jVJIgrmsE1n152C2gL-3" value="" style="rounded=1;whiteSpace=wrap;html=1;arcSize=6;strokeColor=none;fillColor=#3e4750;" vertex="1" parent="I0jVJIgrmsE1n152C2gL-6">
          <mxGeometry width="1432.7310569105691" height="1970.0000000000002" as="geometry" />
        </mxCell>
        <mxCell id="I0jVJIgrmsE1n152C2gL-4" value="" style="rounded=1;whiteSpace=wrap;html=1;arcSize=17;strokeColor=none;fillColor=#3e4750;" vertex="1" parent="I0jVJIgrmsE1n152C2gL-6">
          <mxGeometry x="14.999999999999773" width="1694.48" height="1970.0000000000002" as="geometry" />
        </mxCell>
        <mxCell id="I0jVJIgrmsE1n152C2gL-9" value="&lt;font data-font-src=&quot;https://fonts.googleapis.com/css?family=Cardo&quot; size=&quot;1&quot; face=&quot;Cardo&quot; color=&quot;#e8e9eb&quot;&gt;&lt;b&gt;&lt;font style=&quot;font-size: 800px;&quot; data-font-src=&quot;https://fonts.googleapis.com/css?family=Lora&quot;&gt;MD&lt;/font&gt;&lt;/b&gt;&lt;/font&gt;" style="text;html=1;align=center;verticalAlign=middle;resizable=0;points=[];autosize=1;strokeColor=none;fillColor=none;" vertex="1" parent="I0jVJIgrmsE1n152C2gL-6">
          <mxGeometry x="132.23999999999978" y="320" width="1460" height="970" as="geometry" />
        </mxCell>
        <mxCell id="I0jVJIgrmsE1n152C2gL-15" value="" style="rounded=1;whiteSpace=wrap;html=1;strokeColor=none;fillColor=#e9eaec;" vertex="1" parent="I0jVJIgrmsE1n152C2gL-6">
          <mxGeometry x="684" y="1300" width="760" height="60" as="geometry" />
        </mxCell>
        <mxCell id="I0jVJIgrmsE1n152C2gL-21" value="" style="rounded=1;whiteSpace=wrap;html=1;strokeColor=none;fillColor=#e9eaec;" vertex="1" parent="I0jVJIgrmsE1n152C2gL-6">
          <mxGeometry x="684" y="1420" width="870" height="60" as="geometry" />
        </mxCell>
        <mxCell id="I0jVJIgrmsE1n152C2gL-22" value="" style="rounded=1;whiteSpace=wrap;html=1;strokeColor=none;fillColor=#e9eaec;" vertex="1" parent="I0jVJIgrmsE1n152C2gL-6">
          <mxGeometry x="684" y="1540" width="710" height="60" as="geometry" />
        </mxCell>
      </root>
    </mxGraphModel>
  </diagram>
</mxfile>
